<?xml version="1.0" encoding="UTF-8"?>
<svg xmlns="http://www.w3.org/2000/svg" viewBox="1440 480 480 480" width="480" height="480">
  <rect x="1440" y="480" width="480" height="480" style="fill: #9fccf2;"/>
  <path d="M1666.36,805.5c-14.99.24-51.1-3.95-66.06-5.88-1.5-.19-1.56-2.34-.07-2.61,14.91-2.72,50.63-6.43,63.97-7.55v-36.14c-42.74-6.78-75.85-26.04-84.01-70.06-2.77-14.97,1.74-33.28,5.11-48.64,4.07-18.59,12.51-36.1,17.21-54.61,5.51-21.67,2.89-30.48-26.79-21.42,2.49-10.09,23.04-12.89,27.83-10.79,7.07,3.11,13.28,10.72,12.85,19.91-1.05,22.59-3.28,37.91-8.64,65.62s-5.96,56.4,19.21,74.83c9.97,7.3,37.95,12.23,37.95,12.23,0,0,9.55-130.28,11.17-147.85.19-2.01,1.87-3.55,3.9-3.56h0c2.02,0,3.72,1.53,3.91,3.55l10.37,147.86c24.85,0,60.83-21.55,60.69-50.41-.12-22.53-5.7-45-8.34-67.55-1.36-11.62-3.31-23.49-2.05-35.03,1.96-18.08,22.13-31.49,38.56-9.4-24.21-10.72-30.98,2.94-25.37,24.36,4.52,17.26,11.01,33.94,16.54,50.91,19.25,59.07-34.4,113.24-78.57,120.64-.25,8.25,0,33.53,0,33.53,0,0,53.62,6.48,61.92,7.49,7.34.89,7.78,4.42.08,5.17-8.6.84-44.29,3.36-62.96,5.22l-2.13,37.95c16.76,1.54,56.19,6.85,65.57,8.2,1.3.19,2.26,1.29,2.28,2.6h0c.02,1.4-1.04,2.58-2.44,2.7-9.94.84-50.43,3.95-69.32,6.28-1.7,11.22-6.42,38.26-7.53,44.63-.14.8-.83,1.39-1.65,1.4h0c-.86,0-1.58-.63-1.69-1.48-.8-6.44-4.69-23.24-6.1-44.63-31.19-1.95-60.15-5.08-70.89-7.28-1.76-.36-1.8-2.85-.06-3.27,10.09-2.39,37.26-7.48,67.49-9.28l-1.95-37.69Z" style="fill: #603813;"/>
</svg>