<?xml version="1.0" encoding="UTF-8"?>
<svg xmlns="http://www.w3.org/2000/svg" viewBox="960 480 480 480" width="480" height="480">
  <rect x="960" y="480" width="480" height="480" style="fill: #eea340;"/>
  <path d="M1350.29,556.39c.32-2.54,4.06-2.71,4.88-.29,17.46,47.26-59.34,151.55-78.25,201.67,52.83,41.42,49.33,63.71-8.85,20.77-16.52,30-58.74,131.27-59.51,131.73-.23-.35-36.17-79.98-45.68-106.71-28.83,3.9-54.46-9.33-51.32-41.28,9.7,9.2,17.62,15.57,37.36,14.55-15.89-75.41-106.05-167.46-86.01-217.44,20.59,45.97,51.67,95.1,82.27,133.01,34.88,4.9,87.92,9.16,122.88,13.45,17.33-25.92,65.3-72.97,82.23-149.46ZM1181.93,771.48c18.07-9,42.59-12.55,62.31-16.77,4.77-1.02,9.18-14.73,12.94-22.53-34.34-3.95-68.85-8.46-101.11-12.17,7.52,14.64,17.1,34.42,25.86,51.48ZM1194.61,799.19c5.62,10.15,9.72,17.56,15.55,28.1,6.62-14.25,11.59-24.95,18.1-38.99-12.99,4.2-21.61,6.99-33.66,10.89Z" style="fill: #603813;"/>
</svg>