<?xml version="1.0" encoding="UTF-8"?>
<svg xmlns="http://www.w3.org/2000/svg" viewBox="480 480 480 480" width="480" height="480">
  <rect x="480" y="480" width="480" height="480" style="fill: #b0cbdc;"/>
  <path d="M816.91,573.41c4.43-1.36.76-6.33-1.87-7.56-5.49-3.18-10.75-4.21-10.32-11.88.37-3.94,1.14-8.04,3.49-11.14,6.98-7.46,22.51-4.35,32.25-3.68,16.29,2.14,26.4,15.95,26.49,31.22,0,14.12-8.77,25.93-23.3,29.97-39.81,15.13-104.61,1.87-110.28,62.55.09,2.32,2.18,1.65,5.03.49,6.19-2.81,13.67-8.06,19.28-11.37,33.33-18.33,57.41-19.64,106.03-18.51,3.11.08,5.52.37,7.88,1.05,9.72,2.6,13.84,11.02,12.96,20.26-.1,24.56-42.5-5.04-94.52,16.36-164.9,65.3-49.85,208.87-143.93,224.72-21.23,3.98-39.17-11.43-44.13-31.63-3.17-15.14-26.11-74.83.57-79.84,10.95-1.28,18.51,7.64,19.46,17.9.37,4.32.46,9,.88,13.27,1.34,13.6,3.32,24.06,7.13,36.43,4.15,10.06,17.37,12.95,23.2,2.3,16.2-50.95,2.47-109.2,39.42-152.51,2-2.62,2.93-3.79,3.66-7.08,6.09-82.4,26.59-111.72,120.4-121.25l.2-.06Z" style="fill: #603813;"/>
</svg>