<?xml version="1.0" encoding="UTF-8"?>
<svg xmlns="http://www.w3.org/2000/svg" viewBox="0 480 480 480" width="480" height="480">
  <rect x="0" y="480" width="480" height="480" style="fill: #efcbe9;"/>
  <path d="M338.24,761.56c22.02-11.85,50.24,20.76,48.46,42.07-1.46,34.23-54.4,85.75-88.87,82.63-39.96-3.61-62.67-39.49-41.66-73.25,13.38-21.5,29.1-41.57,42.98-62.78,3.18-6.1,25.14-39.25,20.16-42.68-16.6-.14-47.25,42.84-50.91,46.86-5.05,3.67-43.51,66.84-44.41,51.99,4.95-28.09,9.43-59.94,14.92-86.81.13-10.03,10.5-25.02-5.05-32.29-7.77-3.64-30.6,14.78-30.64,26.21-.17,48.38-.22,104.59-.09,152.97.03,12.23.35,26.27-16.25,25.68-14.48-.52-17.67-12.92-17.58-25.93-.45-75.4,2.09-156.4.55-231.02-9.33-3.47-38.82-1.89-52.09-1.7-11.76.7-24.74.57-22.94-12.6.96-7.02,6.19-17.64,14.43-19.06,16.31-2.8,40.24.45,59.23.45,3.03-18.39-6.18-50.71,19.34-52,22.97.37,13.05,34.69,15.14,51.84,23.74-3.72,44.82-6.57,67.64-2.67,17.28,5.6,22.88,30.53-4.77,29.96-14.36.47-55.07,1.74-62.64,2.72,0,0-.41,18.32,1.02,32.68,31.34-19.45,63.39-7.22,67.4,34.38,1.81-1.45,12.19-8.75,17.54-12.56,37.08-27.48,73.29,3.1,57.81,41.5-11.63,36.8-44.93,70.1-64.99,101.1-7.82,15.77,8.74,25.47,21.1,25.11,19.12-1.62,47.2-35.51,51.04-56.85.29-1.63-1.68-2.88-2.89-1.74-18.43,17.32-29.21,1.07-29.92-6.68-.71-7.64,9.93-23.7,16.9-27.53Z" style="fill: #603813;"/>
</svg>