<?xml version="1.0" encoding="UTF-8"?>
<svg xmlns="http://www.w3.org/2000/svg" viewBox="1440 0 480 480" width="480" height="480">
  <rect x="1440" y="0" width="480" height="480" style="fill: #cc786a;"/>
  <path d="M1861.23,368.04l-42.7-61.75c11.3-11.11,19.17-23.7,22.68-37.19l66.51-11.33-64.76-11.03c-2.4-23.9-18.34-45.51-43.13-61.94l11.33-38.87-28.01,29.27c-8.54-4.27-17.78-8.01-27.62-11.14l6.41-70.21-33.51,63.46c-10.99-2.04-22.48-3.38-34.32-3.93l-11.87-93.17-11.86,93.16c-11.64.52-22.93,1.8-33.76,3.77l-30.43-62.97,8.66,68.01c-10.44,2.97-20.29,6.61-29.38,10.84l-33.69-29.96,13.89,40.83c-25.98,16.8-42.6,39.21-44.64,64l-64.67,10.55,66.59,10.87c3.08,11.68,9.43,22.68,18.44,32.63l-38.26,69.43,68.52-45.47c8.22,4.79,17.26,9.06,26.96,12.71l-7.86,39.52,35.63-31.23c14.31,3.26,29.58,5.3,45.48,5.92l10.39,73.51,10.39-73.53c15.24-.61,29.91-2.54,43.71-5.6l38.53,29.75-10.07-38.09c7.84-2.91,15.25-6.23,22.16-9.9l74.26,39.09ZM1810.12,244.65h-114.09v-59.13c31.56,1.96,61.29,10.47,83.18,24.04,10.83,6.72,19.47,14.53,24.98,22.61,2.82,4.13,4.79,8.31,5.93,12.48ZM1584.92,209.56c21.84-13.54,51.49-22.05,82.98-24.03v59.11h-113.89c1.14-4.17,3.11-8.34,5.93-12.48,5.51-8.08,14.15-15.89,24.98-22.61ZM1559.93,273.92c-.26-.37-.48-.75-.72-1.13h108.68v47.76c-31.49-1.98-61.14-10.49-82.98-24.03-10.83-6.72-19.47-14.53-24.98-22.61ZM1696.04,320.57v-47.78h108.88c-.24.38-.46.75-.72,1.13-5.51,8.08-14.15,15.89-24.98,22.61-21.88,13.57-51.62,22.08-83.18,24.04Z" style="fill: #603813;"/>
</svg>