<?xml version="1.0" encoding="UTF-8"?>
<svg xmlns="http://www.w3.org/2000/svg" viewBox="960 0 480 480" width="480" height="480">
  <rect x="960" y="0" width="480" height="480" style="fill: #a79cfd;"/>
  <path d="M1413.09,187.55c6.89,15.06-.67,35.05-14.76,46.55-21.34,17.43-38.74,4.05-57.94-4.98-27.38,32.3-14.5,37.27-8.14,48.89-13.8-4.17-16.93-15.44-35.03-5.18-15.62,8.85-15.19,11.4-10.77,31.91-7.64-6.18-13.95-15.57-24.84-12.08-14.21,4.55-8.73,19.92-11.91,38.64-8.78-17.87-8.26-29.62-26.8-26.96-21.18,3.04-15.08,24.83-20.19,31.98-6.47-7.57-2.7-24.51-20.77-25.53-15.34-.87-17.42,12.22-25.87,23.15,1.02-21.11,12.06-25.99-12.83-29.96-23.94-5.1-30.82,13.69-33.3,16.69,1.7-34.04,1.53-27.57-13.11-35.23-19.37-10.13-17.95-3.46-36.77,8.68,4.7-21.8,9.53-25.19,4.26-33.19s-8.68-14.47-20.26-24c-15.29,11.32-44.44,34.62-59.06,45.45,48.02-60.93,112.48-131.39,196.19-138.87,69.66-6.06,123.38,20.03,177.59,59.1,36.18,26.07,50.18,8.59,37.96-21.42-2.52-6.19-15.48-25.5-12-28.77,2.5-2.35,23.4,24.35,28.34,35.15ZM1269.77,187.89c-16.07,34.9-28.16,65.88-69.77,61.9-35.18-3.37-51.26-29.22-58.23-64.54-40.73,11.6-62.83,25.19-91.91,48.73,98.69,66.61,201.2,52.58,280.96-11.86-20.55-11.45-38.92-25.27-61.05-34.22ZM1241.3,181.17c-23.72-3-52.64-5.27-73.45-1.28,5.74,59.7,66,55.66,73.45,1.28Z" style="fill: #603813;"/>
</svg>