<?xml version="1.0" encoding="UTF-8"?>
<svg xmlns="http://www.w3.org/2000/svg" viewBox="480 0 480 480" width="480" height="480">
  <rect x="480" y="0" width="480" height="480" style="fill: #c8f49e;"/>
  <path d="M724.89,173.57c-44.97-.34-112.74,30.31-81.86,80.81,12.51,16.37,15.97,34.25,11.66,53.33-16.78,54.5-115.16,45.47-118.35-17.38-1.98-16.23,7.25-26.96,22.14-25.73,10.03.83,14.29,5.89,13.35,15.97-4.04,25.41,24.99,36.47,43.96,23.41,13.5-8.09,3.09-22.4-3.33-31.68-22.16-35.32-13.09-80.17,21.22-104.89,75.94-67.45,261.36-4.32,193.04,109.53-3.98,5.61-7.06,14.53-5.53,20.69,2.12,8.5,11.59,10.6,20.41,11.02,19.15.9,29.58-8.65,28.64-26.61-1.15-28.93,40.05-18.96,35.56,5.99-.65,62.53-99.46,77.71-118.54,19.14-15.05-43.59,45.58-66.3,6.65-105.28-17.52-16.83-47-26.11-69.02-28.31Z" style="fill: #603813;"/>
</svg>