<?xml version="1.0" encoding="UTF-8"?>
<svg xmlns="http://www.w3.org/2000/svg" viewBox="0 0 480 480" width="480" height="480">
  <rect x="0" y="0" width="480" height="480" style="fill: #d39d67;"/>
  <path d="M183.25,386.76c-12.49-13.63-27.53-27.81-39.45-41.92-6.31-7.47-6.95-15.84-2.16-24.9,11.96-22.6,15.27-19.02,14.09-71.8-.9-40.5-.45-81.71-.61-122.37-17.68,0-52.66.26-52.66.26l22.28-26.04c70.46.98,154.45,1.03,226.71.68,39.07-.61,47.17,42.26,15.84,59.57-5.32,4.28-11.9,9.11-6.1,18.69,4.89,8.08,10.68,9.32,18.2,4.68,7.36-5.24,15.61-16.85,25.18-9.32,11.34,25.82-55.67,51.03-70.91,9.27-12.36-27.85,25.91-29.34,21.27-47.95-2.97-8.71-8.47-11.14-16.48-11.62-9.47.17-28.29-1.62-35.74.51-.67,70.93.27,163.14-.26,232.09,0,0,7.34,7.35,16.72,15.72-.77.49-1.54.99-2.31,1.48-19.24,0-40.03-.01-59.34-.01,8.65-8.76,16.09-18.21,16.09-18.21.66-72.82-.67-157.08.26-230.55-26.17.26-63.24-.4-89.36.77-.7,86.1-.85,174.63-1.24,260.99-.82.17.82-.17,0,0Z" style="fill: #603813;"/>
</svg>